<svg width="16" height="16" viewBox="0 0 16 16" fill="none" xmlns="http://www.w3.org/2000/svg">
<path d="M3.48739 15.3267C2.92395 15.3267 2.40785 15.1894 1.9391 14.9148C1.47035 14.6354 1.0963 14.2614 0.816939 13.7926C0.542318 13.3239 0.405007 12.8078 0.405007 12.2443C0.405007 11.6761 0.542318 11.1577 0.816939 10.6889C1.0963 10.2202 1.47035 9.84612 1.9391 9.56676C2.40785 9.28741 2.92395 9.14773 3.48739 9.14773H5.13512V6.29261H3.48739C2.92395 6.29261 2.40785 6.1553 1.9391 5.88068C1.47035 5.60133 1.0963 5.22964 0.816939 4.76562C0.542318 4.29688 0.405007 3.77841 0.405007 3.21023C0.405007 2.64205 0.542318 2.12595 0.816939 1.66193C1.0963 1.19318 1.47035 0.821496 1.9391 0.546875C2.40785 0.267518 2.92395 0.12784 3.48739 0.12784C4.05558 0.12784 4.57404 0.267518 5.04279 0.546875C5.51154 0.821496 5.88559 1.19318 6.16495 1.66193C6.44431 2.12595 6.58398 2.64205 6.58398 3.21023V4.84375H9.4391V3.21023C9.4391 2.64205 9.57641 2.12595 9.85103 1.66193C10.1304 1.19318 10.5021 0.821496 10.9661 0.546875C11.4348 0.267518 11.9533 0.12784 12.5215 0.12784C13.0897 0.12784 13.6058 0.267518 14.0698 0.546875C14.5385 0.821496 14.9102 1.19318 15.1848 1.66193C15.4642 2.12595 15.6039 2.64205 15.6039 3.21023C15.6039 3.77841 15.4642 4.29688 15.1848 4.76562C14.9102 5.22964 14.5385 5.60133 14.0698 5.88068C13.6058 6.1553 13.0897 6.29261 12.5215 6.29261H10.888V9.14773H12.5215C13.0897 9.14773 13.6058 9.28741 14.0698 9.56676C14.5385 9.84612 14.9102 10.2202 15.1848 10.6889C15.4642 11.1577 15.6039 11.6761 15.6039 12.2443C15.6039 12.8078 15.4642 13.3239 15.1848 13.7926C14.9102 14.2614 14.5385 14.6354 14.0698 14.9148C13.6058 15.1894 13.0897 15.3267 12.5215 15.3267C11.9533 15.3267 11.4348 15.1894 10.9661 14.9148C10.5021 14.6354 10.1304 14.2614 9.85103 13.7926C9.57641 13.3239 9.4391 12.8078 9.4391 12.2443V10.5966H6.58398V12.2443C6.58398 12.8078 6.44431 13.3239 6.16495 13.7926C5.88559 14.2614 5.51154 14.6354 5.04279 14.9148C4.57404 15.1894 4.05558 15.3267 3.48739 15.3267ZM3.48739 13.8778C3.79042 13.8778 4.06505 13.8045 4.31126 13.6577C4.5622 13.5109 4.76107 13.3144 4.90785 13.0682C5.05936 12.8172 5.13512 12.5426 5.13512 12.2443V10.5966H3.48739C3.1891 10.5966 2.91448 10.6723 2.66353 10.8239C2.41732 10.9706 2.22082 11.1695 2.07404 11.4205C1.92726 11.6667 1.85387 11.9413 1.85387 12.2443C1.85387 12.5426 1.92726 12.8172 2.07404 13.0682C2.22082 13.3144 2.41732 13.5109 2.66353 13.6577C2.91448 13.8045 3.1891 13.8778 3.48739 13.8778ZM3.48739 4.84375H5.13512V3.21023C5.13512 2.9072 5.05936 2.63258 4.90785 2.38636C4.76107 2.14015 4.5622 1.94366 4.31126 1.79688C4.06505 1.65009 3.79042 1.5767 3.48739 1.5767C3.1891 1.5767 2.91448 1.65009 2.66353 1.79688C2.41732 1.94366 2.22082 2.14015 2.07404 2.38636C1.92726 2.63258 1.85387 2.9072 1.85387 3.21023C1.85387 3.51326 1.92726 3.79025 2.07404 4.04119C2.22082 4.28741 2.41732 4.4839 2.66353 4.63068C2.91448 4.77273 3.1891 4.84375 3.48739 4.84375ZM10.888 4.84375H12.5215C12.8245 4.84375 13.0991 4.77273 13.3453 4.63068C13.5916 4.4839 13.7881 4.28741 13.9348 4.04119C14.0816 3.79025 14.155 3.51326 14.155 3.21023C14.155 2.9072 14.0816 2.63258 13.9348 2.38636C13.7881 2.14015 13.5916 1.94366 13.3453 1.79688C13.0991 1.65009 12.8245 1.5767 12.5215 1.5767C12.2185 1.5767 11.9415 1.65009 11.6905 1.79688C11.4443 1.94366 11.2478 2.14015 11.101 2.38636C10.959 2.63258 10.888 2.9072 10.888 3.21023V4.84375ZM12.5215 13.8778C12.8245 13.8778 13.0991 13.8045 13.3453 13.6577C13.5916 13.5109 13.7881 13.3144 13.9348 13.0682C14.0816 12.8172 14.155 12.5426 14.155 12.2443C14.155 11.9413 14.0816 11.6667 13.9348 11.4205C13.7881 11.1695 13.5916 10.9706 13.3453 10.8239C13.0991 10.6723 12.8245 10.5966 12.5215 10.5966H10.888V12.2443C10.888 12.5426 10.959 12.8172 11.101 13.0682C11.2478 13.3144 11.4443 13.5109 11.6905 13.6577C11.9415 13.8045 12.2185 13.8778 12.5215 13.8778ZM6.58398 9.14773H9.4391V6.29261H6.58398V9.14773Z" fill="black"/>
</svg>
