<svg width="24" height="10" viewBox="0 0 24 10" fill="none" xmlns="http://www.w3.org/2000/svg">
<path d="M4.00872 9.16513C3.20262 9.16513 2.50837 8.9929 1.92598 8.64844C1.34715 8.30043 0.899704 7.81214 0.583652 7.18359C0.271152 6.55149 0.114902 5.81108 0.114902 4.96236C0.114902 4.12429 0.271152 3.38565 0.583652 2.74645C0.899704 2.10724 1.34004 1.60831 1.90468 1.24964C2.47286 0.89098 3.13692 0.711648 3.89686 0.711648C4.35851 0.711648 4.80595 0.787997 5.23919 0.940696C5.67243 1.09339 6.06128 1.3331 6.40574 1.6598C6.7502 1.98651 7.02186 2.41087 7.22073 2.93288C7.41959 3.45135 7.51902 4.08168 7.51902 4.82386V5.38849H1.01512V4.19531H5.9583C5.9583 3.77628 5.87307 3.40518 5.70262 3.08203C5.53216 2.75533 5.29246 2.49787 4.98351 2.30966C4.67811 2.12145 4.31945 2.02734 3.90752 2.02734C3.46007 2.02734 3.06945 2.13743 2.73564 2.3576C2.40539 2.57422 2.1497 2.85831 1.9686 3.20987C1.79104 3.55788 1.70226 3.93608 1.70226 4.34446V5.27663C1.70226 5.82351 1.79814 6.28871 1.9899 6.67223C2.18521 7.05575 2.45688 7.34872 2.80489 7.55114C3.1529 7.75 3.5595 7.84943 4.0247 7.84943C4.32655 7.84943 4.60176 7.80682 4.85034 7.72159C5.09892 7.63281 5.31377 7.50142 5.49487 7.32741C5.67598 7.15341 5.81448 6.93857 5.91036 6.68288L7.41781 6.95455C7.29708 7.39844 7.08046 7.78729 6.76796 8.12109C6.45901 8.45135 6.07016 8.70881 5.60141 8.89347C5.13621 9.07457 4.60531 9.16513 4.00872 9.16513ZM15.3272 2.8157L13.8837 3.07138C13.8233 2.88672 13.7274 2.71094 13.596 2.54403C13.4682 2.37713 13.2942 2.24041 13.074 2.13388C12.8538 2.02734 12.5786 1.97408 12.2484 1.97408C11.7974 1.97408 11.4209 2.07528 11.1191 2.2777C10.8172 2.47656 10.6663 2.73402 10.6663 3.05007C10.6663 3.32351 10.7675 3.54368 10.9699 3.71058C11.1724 3.87749 11.4991 4.0142 11.9501 4.12074L13.2498 4.41903C14.0026 4.59304 14.5637 4.86115 14.933 5.22337C15.3023 5.58558 15.487 6.05611 15.487 6.63494C15.487 7.125 15.3449 7.56179 15.0609 7.94531C14.7803 8.32528 14.3879 8.62358 13.8837 8.8402C13.3829 9.05682 12.8023 9.16513 12.1418 9.16513C11.2256 9.16513 10.4781 8.96982 9.89928 8.57919C9.32045 8.18501 8.96533 7.62571 8.83394 6.90128L10.3734 6.6669C10.4692 7.06818 10.6663 7.3718 10.9646 7.57777C11.2629 7.78018 11.6518 7.88139 12.1312 7.88139C12.6532 7.88139 13.0704 7.77308 13.3829 7.55646C13.6954 7.33629 13.8517 7.06818 13.8517 6.75213C13.8517 6.49645 13.7558 6.28161 13.5641 6.1076C13.3758 5.93359 13.0864 5.8022 12.6958 5.71342L11.3109 5.4098C10.5474 5.2358 9.98273 4.95881 9.61697 4.57884C9.25475 4.19886 9.07364 3.71768 9.07364 3.1353C9.07364 2.65234 9.20858 2.22976 9.47847 1.86754C9.74836 1.50533 10.1212 1.22301 10.5971 1.0206C11.0729 0.814631 11.618 0.711648 12.2324 0.711648C13.1166 0.711648 13.8126 0.903409 14.3204 1.28693C14.8283 1.6669 15.1638 2.17649 15.3272 2.8157ZM20.5945 9.16513C19.8026 9.16513 19.1208 8.9858 18.5491 8.62713C17.9809 8.26491 17.5441 7.76598 17.2387 7.13033C16.9333 6.49467 16.7806 5.76669 16.7806 4.94638C16.7806 4.11541 16.9369 3.3821 17.2494 2.74645C17.5619 2.10724 18.0022 1.60831 18.5704 1.24964C19.1386 0.89098 19.8079 0.711648 20.5785 0.711648C21.2 0.711648 21.754 0.82706 22.2405 1.05788C22.727 1.28516 23.1194 1.60476 23.4177 2.01669C23.7195 2.42862 23.8989 2.9098 23.9557 3.46023H22.4056C22.3204 3.0767 22.1251 2.74645 21.8197 2.46946C21.5178 2.19247 21.113 2.05398 20.6052 2.05398C20.1613 2.05398 19.7724 2.17116 19.4386 2.40554C19.1084 2.63636 18.8509 2.96662 18.6663 3.39631C18.4816 3.82244 18.3893 4.3267 18.3893 4.90909C18.3893 5.50568 18.4798 6.0206 18.6609 6.45384C18.842 6.88707 19.0977 7.22266 19.428 7.46058C19.7618 7.69851 20.1542 7.81747 20.6052 7.81747C20.907 7.81747 21.1805 7.76243 21.4255 7.65234C21.6741 7.53871 21.8818 7.37713 22.0487 7.16761C22.2192 6.9581 22.3381 6.70597 22.4056 6.41122H23.9557C23.8989 6.94034 23.7266 7.41264 23.439 7.82812C23.1513 8.24361 22.766 8.57031 22.2831 8.80824C21.8037 9.04616 21.2408 9.16513 20.5945 9.16513Z" fill="black"/>
</svg>
