<svg width="105" height="97" viewBox="0 0 105 97" fill="none" xmlns="http://www.w3.org/2000/svg">
<path d="M0 31.5817C0 53.8562 18.68 75.7647 48.1914 94.5882C49.2902 95.268 50.8599 96 51.9588 96C53.0576 96 54.6273 95.268 55.7785 94.5882C85.2375 75.7647 103.918 53.8562 103.918 31.5817C103.918 13.0719 91.2025 0 74.2492 0C64.5691 0 56.7203 4.60131 51.9588 11.6601C47.3018 4.65359 39.3484 0 29.6683 0C12.715 0 0 13.0719 0 31.5817ZM8.42433 31.5817C8.42433 17.6732 17.4242 8.4183 29.5636 8.4183C39.4008 8.4183 45.0519 14.5359 48.4007 19.7647C49.8134 21.8562 50.703 22.4314 51.9588 22.4314C53.2146 22.4314 53.9994 21.8039 55.5169 19.7647C59.1273 14.6405 64.5691 8.4183 74.3539 8.4183C86.4933 8.4183 95.4932 17.6732 95.4932 31.5817C95.4932 51.0327 74.9295 72 53.0576 86.5359C52.5343 86.902 52.1681 87.1634 51.9588 87.1634C51.7495 87.1634 51.3832 86.902 50.9123 86.5359C28.9881 72 8.42433 51.0327 8.42433 31.5817Z" fill="#3C3C43" fill-opacity="0.6"/>
</svg>
