<svg width="20" height="15" viewBox="0 0 20 15" fill="none" xmlns="http://www.w3.org/2000/svg">
<path d="M1.71058 9.41761V7.85511H14.31C14.8877 7.85511 15.4132 7.71307 15.8867 7.42898C16.3649 7.14489 16.7437 6.76373 17.0231 6.28551C17.3072 5.80729 17.4492 5.27936 17.4492 4.7017C17.4492 4.12405 17.3072 3.59848 17.0231 3.125C16.739 2.65152 16.3602 2.27273 15.8867 1.98864C15.4132 1.70455 14.8877 1.5625 14.31 1.5625H13.5856V0H14.31C15.1765 0 15.9648 0.213068 16.6751 0.639204C17.3853 1.06061 17.9511 1.62642 18.3725 2.33665C18.7987 3.04688 19.0117 3.83523 19.0117 4.7017C19.0117 5.35038 18.8886 5.96117 18.6424 6.53409C18.4009 7.10227 18.0648 7.60417 17.6339 8.03977C17.203 8.47064 16.7035 8.80919 16.1353 9.0554C15.5671 9.29688 14.9587 9.41761 14.31 9.41761H1.71058ZM6.41229 15L0.0486506 8.63636L6.41229 2.27273L7.49893 3.35938L2.21484 8.63636L7.49893 13.9134L6.41229 15Z" fill="black"/>
</svg>
