<svg width="23" height="12" viewBox="0 0 23 12" fill="none" xmlns="http://www.w3.org/2000/svg">
<path d="M5.22454 2.81818V4.09659H0.755439V2.81818H5.22454ZM1.95395 0.857954H3.54663V8.59766C3.54663 8.90661 3.5928 9.1392 3.68513 9.29545C3.77746 9.44815 3.89642 9.55291 4.04202 9.60973C4.19116 9.663 4.35274 9.68963 4.52675 9.68963C4.65459 9.68963 4.76645 9.68075 4.86233 9.663C4.95821 9.64524 5.03278 9.63104 5.08605 9.62038L5.37369 10.9361C5.28136 10.9716 5.14997 11.0071 4.97952 11.0426C4.80906 11.0817 4.59599 11.103 4.34031 11.1065C3.92128 11.1136 3.53065 11.0391 3.16844 10.8828C2.80622 10.7266 2.51325 10.4851 2.28953 10.1584C2.06581 9.83168 1.95395 9.42152 1.95395 8.92791V0.857954ZM9.27739 11.1811C8.75892 11.1811 8.29017 11.0852 7.87114 10.8935C7.4521 10.6982 7.12007 10.4158 6.87504 10.0465C6.63357 9.6772 6.51283 9.22443 6.51283 8.68821C6.51283 8.22656 6.60161 7.84659 6.77916 7.5483C6.95672 7.25 7.19642 7.01385 7.49827 6.83984C7.80012 6.66584 8.13747 6.53445 8.51034 6.44567C8.88321 6.35689 9.26318 6.28942 9.65026 6.24325C10.1403 6.18643 10.538 6.14027 10.8434 6.10476C11.1488 6.0657 11.3708 6.00355 11.5093 5.91832C11.6478 5.8331 11.717 5.6946 11.717 5.50284V5.46555C11.717 5.00035 11.5856 4.63991 11.3228 4.38423C11.0636 4.12855 10.6765 4.00071 10.1616 4.00071C9.6254 4.00071 9.20281 4.11967 8.89387 4.3576C8.58847 4.59197 8.37718 4.85298 8.25999 5.14062L6.76318 4.79972C6.94074 4.30256 7.19997 3.90128 7.54088 3.59588C7.88534 3.28693 8.28129 3.06321 8.72874 2.92472C9.17618 2.78267 9.64671 2.71165 10.1403 2.71165C10.467 2.71165 10.8133 2.75071 11.179 2.82884C11.5483 2.90341 11.8928 3.0419 12.2124 3.24432C12.5356 3.44673 12.8001 3.73615 13.0061 4.11257C13.212 4.48544 13.315 4.97017 13.315 5.56676V11H11.7596V9.88139H11.6957C11.5927 10.0874 11.4383 10.2898 11.2323 10.4886C11.0263 10.6875 10.7618 10.8526 10.4386 10.984C10.1155 11.1154 9.72838 11.1811 9.27739 11.1811ZM9.62362 9.9027C10.064 9.9027 10.4404 9.8157 10.7529 9.64169C11.0689 9.46768 11.3086 9.24041 11.472 8.95987C11.6389 8.67578 11.7223 8.37216 11.7223 8.04901V6.99432C11.6655 7.05114 11.5554 7.1044 11.3921 7.15412C11.2323 7.20028 11.0494 7.24112 10.8434 7.27663C10.6375 7.30859 10.4368 7.33878 10.2415 7.36719C10.0462 7.39205 9.88286 7.41335 9.75146 7.43111C9.44252 7.47017 9.1602 7.53587 8.90452 7.6282C8.65239 7.72053 8.44997 7.85369 8.29727 8.0277C8.14813 8.19815 8.07355 8.42543 8.07355 8.70952C8.07355 9.10369 8.21915 9.40199 8.51034 9.6044C8.80154 9.80327 9.17263 9.9027 9.62362 9.9027ZM15.4742 11V0.0909088H17.0669V4.14453H17.1628C17.2551 3.97408 17.3883 3.77699 17.5623 3.55327C17.7363 3.32955 17.9778 3.13423 18.2867 2.96733C18.5957 2.79688 19.0041 2.71165 19.5119 2.71165C20.1724 2.71165 20.7619 2.87855 21.2803 3.21236C21.7988 3.54616 22.2054 4.02734 22.5002 4.65589C22.7984 5.28445 22.9476 6.04084 22.9476 6.92507C22.9476 7.8093 22.8002 8.56747 22.5055 9.19957C22.2107 9.82812 21.8059 10.3129 21.291 10.6538C20.7761 10.9911 20.1884 11.1598 19.5279 11.1598C19.0307 11.1598 18.6241 11.0763 18.308 10.9094C17.9955 10.7425 17.7505 10.5472 17.573 10.3235C17.3954 10.0998 17.2587 9.90092 17.1628 9.72692H17.0296V11H15.4742ZM17.035 6.90909C17.035 7.48437 17.1184 7.98864 17.2853 8.42188C17.4522 8.85511 17.6937 9.19425 18.0097 9.43928C18.3258 9.68075 18.7129 9.80149 19.171 9.80149C19.6468 9.80149 20.0445 9.67543 20.3641 9.4233C20.6837 9.16761 20.9252 8.82138 21.0886 8.38459C21.2555 7.9478 21.3389 7.45597 21.3389 6.90909C21.3389 6.36932 21.2573 5.88459 21.0939 5.4549C20.9341 5.02521 20.6926 4.68608 20.3695 4.4375C20.0499 4.18892 19.6504 4.06463 19.171 4.06463C18.7093 4.06463 18.3187 4.18359 17.9991 4.42152C17.683 4.65945 17.4433 4.99148 17.28 5.41761C17.1166 5.84375 17.035 6.34091 17.035 6.90909Z" fill="black"/>
</svg>
